<svg xmlns="http://www.w3.org/2000/svg" xmlns:xlink="http://www.w3.org/1999/xlink" width="121.357" height="121.329" viewBox="0 0 121.357 121.329">
	<defs>
		<style>
			.a{fill:#ef9c4b;}.b{filter:url(#a);}
		</style>
		<filter id="a" x="0" y="0" width="121.357" height="121.329" filterUnits="userSpaceOnUse">
			<feOffset dy="1" input="SourceAlpha" />
			<feGaussianBlur stdDeviation="1" result="b" />
			<feFlood flood-opacity="0.161" />
			<feComposite operator="in" in2="b" />
			<feComposite in="SourceGraphic" />
		</filter>
	</defs>
	<g transform="translate(3 2)">
		<g class="b" transform="matrix(1, 0, 0, 1, -3, -2)">
			<path class="a" d="M159.226,92.357h-7.264V83.486l-3.992-13.307h-7.1V61.307L136.715,48h-62.1L70.456,61.307v8.871h-7.1L59.367,83.486v8.871H52.1L48,105.665v45.827c0,6.515,9.759,11.838,16.274,11.838h87.246c6.044,0,11.838-5.462,11.838-11.367v-46.3Zm-75.74-31.05h44.357v8.871H83.486ZM72.119,83.486H139.21v8.871H72.119Zm78.18,31.05H127.4a22.184,22.184,0,0,1-43.47,0H61.03v-8.872H150.3Z" transform="translate(-45 -46)" />
		</g>
	</g>
</svg>
