<svg xmlns="http://www.w3.org/2000/svg" width="42.146" height="30.105" viewBox="0 0 42.146 30.105"><defs><style>.a{fill:#ef9c4b;}</style></defs><path class="a" d="M74.146,99.01A3.019,3.019,0,0,0,71.136,96H35.01A3.019,3.019,0,0,0,32,99.01v4.516H74.146ZM32,123.094a3.019,3.019,0,0,0,3.01,3.01H71.136a3.019,3.019,0,0,0,3.01-3.01V108.042H32Zm13.359-4.516H60.788a1.317,1.317,0,1,1,0,2.634H45.359a1.317,1.317,0,0,1,0-2.634Zm-6.774,0h1.129a1.317,1.317,0,0,1,0,2.634H38.585a1.317,1.317,0,1,1,0-2.634Z" transform="translate(-32 -96)"/></svg>