<svg xmlns="http://www.w3.org/2000/svg" width="25.947" height="25.947" viewBox="0 0 25.947 25.947">
	<defs>
		<style>
			.a{fill:#fff;}
		</style>
	</defs>
	<path class="a" d="M60.973,48A12.973,12.973,0,1,0,73.947,60.973,12.971,12.971,0,0,0,60.973,48Zm6.643,9.387-8.339,8.377h-.006a1.127,1.127,0,0,1-.724.343,1.092,1.092,0,0,1-.73-.356l-3.493-3.493a.249.249,0,0,1,0-.356l1.11-1.11a.241.241,0,0,1,.349,0l2.769,2.769L66.163,55.9a.246.246,0,0,1,.175-.075.226.226,0,0,1,.175.075L67.6,57.025A.246.246,0,0,1,67.616,57.387Z" transform="translate(-48 -48)" />
</svg>
