<svg xmlns="http://www.w3.org/2000/svg" width="43.953" height="33.658" viewBox="0 0 43.953 33.658">
	<defs>
		<style>
			.a{fill:#fff;}
		</style>
	</defs>
	<path class="a" d="M192.121,177.539l-3.592-3.694a.772.772,0,0,0-.572-.245.741.741,0,0,0-.572.245l-24.9,25.086-9.063-9.063a.789.789,0,0,0-1.143,0l-3.633,3.633a.813.813,0,0,0,0,1.163l11.43,11.43a3.615,3.615,0,0,0,2.388,1.163,3.788,3.788,0,0,0,2.368-1.123h.02l27.29-27.433a.873.873,0,0,0-.02-1.163Z" transform="translate(-148.4 -173.6)" />
</svg>
