<svg xmlns="http://www.w3.org/2000/svg" width="104.243" height="137.157" viewBox="0 0 104.243 137.157">
	<defs>
		<style>
			.a{fill:#ef9c4b;}
		</style>
	</defs>
	<path class="a" d="M299.515,90.012h31.2a1.7,1.7,0,0,0,1.715-1.714,10.148,10.148,0,0,0-3.669-7.852L302.6,58.637a11.014,11.014,0,0,0-7.064-2.537A2.532,2.532,0,0,0,293,58.637V83.5A6.512,6.512,0,0,0,299.515,90.012Z" transform="translate(-228.191 -56.066)" />
	<path class="a" d="M159.894,83.431V56H114.973A11.005,11.005,0,0,0,104,66.973V182.184a11.005,11.005,0,0,0,10.973,10.973h82.3a11,11,0,0,0,10.973-10.973V98.862H175.324A15.454,15.454,0,0,1,159.894,83.431Z" transform="translate(-104 -56)" />
</svg>
