<svg xmlns="http://www.w3.org/2000/svg" width="379.193" height="94.722" viewBox="0 0 379.193 94.722">
	<g fill='#FFF' transform="translate(-215.619 -254.058)">
		<path class="a" d="M368.847,292.608a29.363,29.363,0,0,1,1.225,9.377c.061,15.326.033,30.651.027,45.978,0,2.013-.028,2.031-2.123,2.035q-8.51.015-17.021,0c-1.725-.006-1.791-.052-1.792-1.7-.012-14.663-.124-29.328.042-43.989.116-10.2-3.827-18.135-12.31-23.734a23.558,23.558,0,0,0-13.574-3.964c-4.564.065-9.131-.048-13.7-.082a47.457,47.457,0,0,1,27.049-3.3,46.621,46.621,0,0,1,26.085,13C364.853,288.281,366.821,290.475,368.847,292.608Z" transform="translate(-7.342 -1.445)" />
		<path class="a" d="M283.352,327.844c1.151.24,2.3.494,3.451.717,2.216.43,2.223.423,2.221,2.737q-.007,8.174-.023,16.348c-.005,2.083-.025,2.149-2.048,1.933a46.66,46.66,0,0,1-33.733-19.126,44.961,44.961,0,0,1-9.026-24.293c-1.1-15.918,4.525-29.1,16.354-39.7.513-.461.927-1.186,1.8-1.088a4.442,4.442,0,0,1-1.116,2.12,38.261,38.261,0,0,0-6.786,27.22c1.627,12.764,8.134,22.386,19.008,29.068,2.222,1.365,4.492,2.86,7.24,3.111l-.147-.034a2.079,2.079,0,0,0,1.4.539l-.072-.017A2.475,2.475,0,0,0,283.352,327.844Z" transform="translate(-2.221 -0.883)" />
		<path class="a" d="M281.547,326.022c-2.747-.252-5.018-1.746-7.24-3.111-10.874-6.683-17.381-16.3-19.008-29.068a38.261,38.261,0,0,1,6.786-27.22A4.441,4.441,0,0,0,263.2,264.5a.43.43,0,0,1-.01.085c.175-.183.354-.364.534-.545l-.073.111c.173-.183.35-.365.526-.548l-.064.112c.159-.169.322-.338.483-.507a42.162,42.162,0,0,1,15.161-7.4,53.53,53.53,0,0,1,8.685-1.579c1.045-.122,1.488.164,1.483,1.262-.025,6.116-.041,12.233.012,18.349.011,1.281-.7,1.34-1.647,1.492a26.547,26.547,0,0,0-8.447,49.7A5.2,5.2,0,0,1,281.547,326.022Z" transform="translate(-3.073 -0.011)" />
		<path class="a" d="M236.041,275.122c.029.735.082,1.469.082,2.2q.007,35.145,0,70.289c0,.443-.038.888.006,1.326.1,1.021-.264,1.444-1.356,1.428-5.008-.071-10.016-.075-15.024-.1a30.959,30.959,0,0,0-.3-3.3,77.187,77.187,0,0,1-1.086-12.75c.105-4.046-.053-8.088.4-12.139a109.636,109.636,0,0,1,2.728-15.428,95.541,95.541,0,0,1,6.885-18.628A82.162,82.162,0,0,1,236.041,275.122Z" transform="translate(-0.213 -1.645)" />
		<path class="a" d="M235.828,273.477a82.163,82.163,0,0,0-7.667,12.9,95.539,95.539,0,0,0-6.885,18.628,109.633,109.633,0,0,0-2.728,15.428c-.451,4.051-.292,8.092-.4,12.139a77.189,77.189,0,0,0,1.086,12.75,30.953,30.953,0,0,1,.3,3.3c-3.917.249-3.917.249-3.917-3.654q0-44.008,0-88.018c0-3.147-.266-2.868,2.838-2.873,5.308-.008,10.616.021,15.923-.018,1.127-.008,1.561.348,1.548,1.512C235.865,261.538,235.857,267.508,235.828,273.477Z" transform="translate(0)" />
		<path class="a" d="M368.427,291.2c-2.026-2.133-3.994-4.327-6.09-6.391a46.622,46.622,0,0,0-26.085-13,47.457,47.457,0,0,0-27.049,3.3,27.168,27.168,0,0,1-4.959,0,34.858,34.858,0,0,1,6.429-8.611,52.554,52.554,0,0,1,17.036-11.934,45.089,45.089,0,0,1,23.632,9.572,46.713,46.713,0,0,1,16.9,25.762A11.272,11.272,0,0,1,368.427,291.2Z" transform="translate(-6.922 -0.04)" />
		<path class="a" d="M327.31,254.529a52.554,52.554,0,0,0-17.036,11.934,34.858,34.858,0,0,0-6.429,8.611c-4.7.36-4.7.36-4.7-4.188,0-4.932-.009-9.865.006-14.8.005-1.974.029-2,1.924-2.008q11.486-.019,22.971-.006A13.263,13.263,0,0,1,327.31,254.529Z" transform="translate(-6.523 -0.001)" />
		<path class="a" d="M410.532,304.631q1.2-1.773,2.39-3.547A14.071,14.071,0,0,0,414,299.417a2.6,2.6,0,0,1,3.611-1.438c.35.634-.16.991-.416,1.39-1.029,1.612-2.028,3.251-3.167,4.786a1.814,1.814,0,0,0,.059,2.528c1.188,1.59,2.28,3.254,3.382,4.907.356.533.889.992.913,1.71-2.579.588-2.584.586-3.984-1.391-1.268-1.791-2.534-3.583-3.788-5.357-.8.346-.535.939-.548,1.4-.041,1.4-.053,2.8-.008,4.2.031.994-.276,1.486-1.368,1.49-1.04,0-1.441-.373-1.434-1.414q.044-6.516,0-13.032c-.006-1.05.443-1.423,1.466-1.423,1.112,0,1.357.569,1.336,1.533-.039,1.729-.011,3.459-.011,5.189Z" transform="translate(-14.966 -3.411)" />
		<path class="a" d="M478.078,302.73a7.4,7.4,0,0,1,3.406-.713c1.993.152,3.245,1.115,3.381,3.094.17,2.489.066,5,.084,7.5.007.963-.657.988-1.354.987-.713,0-1.337-.084-1.331-1.028.007-1.4,0-2.8-.013-4.192,0-.662.026-1.328-.036-1.985-.093-1-.4-1.941-1.581-2.072a2.2,2.2,0,0,0-2.256,1.45,5.529,5.529,0,0,0-.489,2.576c.026,1.324-.033,2.649.014,3.972.034.953-.358,1.324-1.293,1.287-.8-.032-1.444-.1-1.438-1.166q.035-6.84-.007-13.679c-.007-1.043.531-1.185,1.381-1.194.866-.009,1.379.16,1.366,1.193A16.464,16.464,0,0,0,478.078,302.73Z" transform="translate(-20.27 -3.398)" />
		<path class="a" d="M598.4,318.876a8.027,8.027,0,0,1-1.522-.148c-2.167-.523-2.988-2.336-1.785-4.208a2.073,2.073,0,0,0,.276-2.344,1.863,1.863,0,0,1,.521-2.032c.508-.564.386-.963-.023-1.518a3.668,3.668,0,0,1-.129-4.527,3.984,3.984,0,0,1,4.52-1.525,6.89,6.89,0,0,0,3.63.259c.394-.108.925-.138.986.525.051.54-.193.847-.745.831-1.03-.031-.9.5-.791,1.273.378,2.81-1.118,4.472-3.974,4.557a9,9,0,0,1-1.1-.02,1.3,1.3,0,0,0-1.566,1.188c-.127,1.013.751,1.141,1.464,1.267a12.12,12.12,0,0,0,1.759.086c.736.02,1.477-.024,2.205.058a2.5,2.5,0,0,1,2.36,1.692,2.878,2.878,0,0,1-.876,3.2C602.6,318.42,601.013,318.882,598.4,318.876Zm.348-1.28c1.543-.022,2.8-.1,3.782-1.045.913-.88.75-2.186-.379-2.469A11.134,11.134,0,0,0,597.33,314a1.664,1.664,0,0,0-1.3,1.817,1.553,1.553,0,0,0,1.46,1.639C597.991,317.554,598.51,317.571,598.748,317.6Zm3.171-11.283a2.4,2.4,0,0,0-2.6-2.622,2.531,2.531,0,0,0-2.77,2.516,2.608,2.608,0,0,0,2.662,2.655A2.456,2.456,0,0,0,601.92,306.313Z" transform="translate(-29.593 -3.776)" />
		<path class="a" d="M443.2,307.983c0,1.473-.016,2.946.007,4.42a1.315,1.315,0,0,1-1.268,1.486,14.89,14.89,0,0,1-5.274.049,3.418,3.418,0,0,1-2.82-2.772c-.566-2.547-.239-5.137-.242-7.708,0-.926.8-.894,1.47-.905s1.185.2,1.2.962c.032,1.251.009,2.5.037,3.756a19.676,19.676,0,0,0,.145,2.641,2.334,2.334,0,0,0,2.36,2.185c1.17.089,1.637-.262,1.663-1.447.047-2.209.03-4.42.014-6.629-.006-.819.1-1.441,1.143-1.481,1.246-.046,1.521.136,1.559,1.466s.008,2.652.008,3.978Z" transform="translate(-17.017 -3.786)" />
		<path class="a" d="M466.354,302.347c.655.076,1.316.124,1.965.236.714.123.935.585.827,1.289-.1.663-.519.843-1.086.816-.513-.025-1.022-.141-1.535-.149a2.829,2.829,0,0,0-3.127,2.467,5.806,5.806,0,0,0-.115.875c-.2,3.087,1.293,4.447,4.42,3.983.709-.105,1.316-.221,1.516.718.212.992-.277,1.343-1.164,1.406-.441.031-.877.128-1.316.138-2.206.052-4.36-.159-5.544-2.37a6.9,6.9,0,0,1,.061-6.966C462.351,302.856,464.214,302.266,466.354,302.347Z" transform="translate(-19.108 -3.771)" />
		<path class="a" d="M448.313,304.312c1.511-2.417,2.8-3.737,4.182-4.385.417.329.3.806.271,1.214-.062.945.337,1.365,1.274,1.31a6.3,6.3,0,0,1,.659.023.891.891,0,0,1,.961.962.85.85,0,0,1-.916.982c-.293.007-.587.032-.88.02-.718-.028-1.088.273-1.08,1.025.018,1.54-.033,3.083.03,4.621.043,1.046.433,1.918,1.735,1.725.826-.124,1.255.1,1.29.992.041,1.008-.636.988-1.316,1-.44.006-.88.018-1.32,0-2.126-.079-3.03-.95-3.12-3.125a45.133,45.133,0,0,1,.006-4.62C450.16,304.877,449.711,304.305,448.313,304.312Z" transform="translate(-18.173 -3.582)" />
		<path class="a" d="M549.2,309.264a10.512,10.512,0,0,1-.029,2.128c-.163.733.684,2.1-.8,2.072-1.211-.022-.647-1.257-.7-1.959-.089-1.246-.023-2.5-.027-3.757,0-.443,0-.886-.026-1.326-.074-1.068-.292-2.07-1.451-2.5a3.094,3.094,0,0,0-3.188,1.013,5.16,5.16,0,0,0-1.129,3.495c-.012,1.473-.022,2.947-.042,4.421-.006.4-.156.737-.625.724a.68.68,0,0,1-.691-.707c-.038-.661-.058-1.325-.058-1.987,0-2.358,0-4.716.023-7.075,0-.351-.027-.786.372-.968.514-.233.811.051,1.008.52s.49.414.86.17a7.633,7.633,0,0,1,1.338-.761,3.421,3.421,0,0,1,4.974,2.677A21.009,21.009,0,0,1,549.2,309.264Z" transform="translate(-25.368 -3.777)" />
		<path class="a" d="M516.787,313.908c-3.29.04-5.231-1.7-5.543-4.979a7.331,7.331,0,0,1,.73-4.063,4.6,4.6,0,0,1,5.22-2.319,4.337,4.337,0,0,1,3.345,4.36c.018.959-.187,1.515-1.331,1.464-1.684-.076-3.377-.051-5.063,0-1.163.037-1.4.391-1.194,1.515a3.251,3.251,0,0,0,3.093,2.658,6.783,6.783,0,0,0,2.832-.251c.389-.126.737-.045.835.423a.66.66,0,0,1-.541.809A8.011,8.011,0,0,1,516.787,313.908Zm-3.688-6.793a38.8,38.8,0,0,0,5.041.119c1.014.029,1.034-.576.821-1.314a2.894,2.894,0,0,0-3.392-2.141C513.956,303.991,513.175,305.025,513.1,307.115Z" transform="translate(-23.085 -3.777)" />
		<path class="a" d="M626.241,309.135c0,1.1.008,2.2,0,3.305-.005.522-.037,1-.746,1.123a10.767,10.767,0,0,1-4.8.1c-1.617-.458-2.35-1.242-2.5-2.686a3.352,3.352,0,0,1,2-3.578,7.554,7.554,0,0,1,3.451-.508c1.081.031,1.415-.483,1.085-1.508a2.1,2.1,0,0,0-2.123-1.594c-.8,0-1.611.055-2.415.12-.4.032-.744.01-.883-.423-.157-.49.219-.667.564-.76a6.982,6.982,0,0,1,4.539.119,2.846,2.846,0,0,1,1.825,2.766C626.266,306.784,626.241,307.96,626.241,309.135Zm-1.4,1.27c.006-2.169-.025-2.205-1.911-2.2-2.151.01-3.338.844-3.315,2.331.022,1.372,1.009,2.041,3.022,2.051C624.761,312.6,624.835,312.527,624.842,310.405Z" transform="translate(-31.439 -3.776)" />
		<path class="a" d="M579.658,307.916c.022-1.957.54-3.9,2.645-4.979a4.665,4.665,0,0,1,6.477,2.274,6.833,6.833,0,0,1-.467,6.736,4.725,4.725,0,0,1-7.937-.412A7.27,7.27,0,0,1,579.658,307.916Zm8.209.052a13.494,13.494,0,0,0-.155-1.423,3.062,3.062,0,0,0-3.137-2.784,3.026,3.026,0,0,0-3.252,2.648,6.759,6.759,0,0,0,.273,4.306,2.929,2.929,0,0,0,2.938,1.877,2.971,2.971,0,0,0,2.9-1.941A7.172,7.172,0,0,0,587.867,307.967Z" transform="translate(-28.431 -3.775)" />
		<path class="a" d="M565.131,307.869c0,3.278-1.341,5.3-3.692,5.891a4.646,4.646,0,0,1-5.644-3.008,7.463,7.463,0,0,1-.237-4.337c.639-2.622,2.323-4.017,4.81-3.965a4.7,4.7,0,0,1,4.644,4.192A10.153,10.153,0,0,1,565.131,307.869Zm-1.442.236a6.529,6.529,0,0,0-.553-2.559,2.854,2.854,0,0,0-2.771-1.793,2.822,2.822,0,0,0-2.879,1.61,6.462,6.462,0,0,0-.042,5.528,2.819,2.819,0,0,0,2.824,1.708,2.885,2.885,0,0,0,2.817-1.725A6.371,6.371,0,0,0,563.689,308.1Z" transform="translate(-26.532 -3.779)" />
		<path class="a" d="M426.517,304.447c0,1.691.01,3.382,0,5.071-.009,1.113.1,2.081,1.568,2.134.858.032.772.75.739,1.319-.033.6-.534.578-.979.624-2.853.3-3.988-.67-4.008-3.513q-.04-5.512,0-11.025c.008-1.321.908-1.868,2.16-1.42.566.2.5.659.506,1.076.015,1.911.006,3.822.006,5.733Z" transform="translate(-16.26 -3.392)" />
		<path class="a" d="M502.185,306.366c0-1.916-.039-3.831.015-5.746.03-1.067-.427-1.447-1.438-1.413a15.245,15.245,0,0,1-2.2-.09.508.508,0,0,1-.4-.669,1.022,1.022,0,0,1,.388-.473.75.75,0,0,1,.423-.084q3.979,0,7.956.007c.384,0,.785.132.83.556.063.587-.411.694-.869.74a5.271,5.271,0,0,1-.662.016c-2.956-.077-2.531.262-2.548,2.757-.02,3.02,0,6.041-.007,9.061,0,.515-.007,1.032-.038,1.545a.716.716,0,0,1-1.424-.019c-.018-.737-.02-1.473-.021-2.21,0-1.326,0-2.652,0-3.978Z" transform="translate(-22.065 -3.423)" />
		<path class="a" d="M532.388,312.582a3.823,3.823,0,0,1,.391-.023c.566.061,1.489-.574,1.552.5.042.731-.872.674-1.38.738-2.21.279-4.383.064-5.667-2.014a6.624,6.624,0,0,1-.1-6.927c1.168-2.137,3.241-2.592,5.506-2.37a5.269,5.269,0,0,1,1.257.349.415.415,0,0,1,.285.514c-.07.182-.265.432-.419.443-.581.039-1.167-.017-1.752-.023-2.821-.029-4.19,1.417-4.195,4.421,0,2.939,1.427,4.416,4.254,4.387Z" transform="translate(-24.261 -3.779)" />
		<path class="a" d="M573.039,304.611c0,1.76-.015,3.52,0,5.28.018,1.716.029,1.728,1.782,2.341.318.112.56.276.527.58a.708.708,0,0,1-.591.569,2.319,2.319,0,0,1-3.075-2.2c-.075-4.178-.028-8.359-.024-12.538,0-.541.072-1.072.818-.98.619.076.541.6.544,1.01.015,1.979.007,3.96.007,5.939Z" transform="translate(-27.805 -3.405)" />
		<path class="a" d="M612.28,308.373c0,1.395.006,2.789,0,4.183,0,.515.029,1.1-.759,1.023-.595-.057-.614-.52-.614-.974,0-2.128.015-4.256-.015-6.383-.013-.957.368-2.109-1.1-2.47-.281-.069-.312-.571-.061-.74a2.593,2.593,0,0,1,2.108-.149c.549.124.437.691.441,1.11C612.288,305.439,612.28,306.907,612.28,308.373Z" transform="translate(-30.766 -3.8)" />
		<path class="a" d="M611.994,298.88a.745.745,0,0,1-.8.813c-.607,0-.966-.29-.938-.926.029-.666.478-.841,1.046-.8C611.849,298.01,612.012,298.385,611.994,298.88Z" transform="translate(-30.82 -3.429)" />
		<path class="a" d="M285.042,332.608a2.079,2.079,0,0,1-1.4-.539A1.684,1.684,0,0,1,285.042,332.608Z" transform="translate(-5.312 -6.092)" />
		<path class="a" d="M286.556,333.1a2.474,2.474,0,0,1-1.473-.463A2.025,2.025,0,0,1,286.556,333.1Z" transform="translate(-5.425 -6.136)" />
		<path class="a" d="M264.42,264.876c-.18.181-.359.362-.534.545C263.789,264.97,264.048,264.87,264.42,264.876Z" transform="translate(-3.768 -0.845)" />
		<path class="a" d="M264.914,264.4c-.176.183-.353.365-.526.548C264.341,264.554,264.588,264.439,264.914,264.4Z" transform="translate(-3.808 -0.808)" />
		<path class="a" d="M265.373,263.974c-.161.169-.324.338-.483.507C264.891,264.159,265.106,264.042,265.373,263.974Z" transform="translate(-3.848 -0.774)" />
	</g>
</svg>
