<svg xmlns="http://www.w3.org/2000/svg" width="125.667" height="116" viewBox="0 0 125.667 116"><defs><style>.a{fill:#ef9c4b;}</style></defs><g transform="translate(-48 -64)"><path class="a" d="M94.732,147.768V96.232a12.892,12.892,0,0,1,12.9-12.9h59.51V76.9A12.847,12.847,0,0,0,154.364,64H61.292C54.132,64,48,69.589,48,76.688v90.625C48,174.411,54.132,180,61.292,180h93.042a12.828,12.828,0,0,0,12.778-12.9v-6.434H107.6A12.886,12.886,0,0,1,94.732,147.768Z" transform="translate(0)"/><path class="a" d="M245,174.833v42.292a4.848,4.848,0,0,0,4.833,4.833h56.49a4.848,4.848,0,0,0,4.833-4.833V174.833A4.848,4.848,0,0,0,306.323,170h-56.49A4.848,4.848,0,0,0,245,174.833Zm23.291,30.782a9.671,9.671,0,1,1,9.032-9.032A9.672,9.672,0,0,1,268.291,205.616Z" transform="translate(-137.49 -73.979)"/></g></svg>